<svg xmlns="http://www.w3.org/2000/svg" xmlns:xlink="http://www.w3.org/1999/xlink" xmlns:lucid="lucid" width="1522" height="780"><g transform="translate(-38 -140)" lucid:page-tab-id="0_0"><path d="M0 0h1870.87v1322.84H0z" fill="#fff"/><path d="M1218.5 401.67V366a6 6 0 0 1 6-6h268a6 6 0 0 1 6 6v35.67z" stroke="#5e5e5e" stroke-width="3" fill="#fcce14"/><path d="M1498.5 401.67V534a6 6 0 0 1-6 6h-268a6 6 0 0 1-6-6V401.67z" stroke="#5e5e5e" stroke-width="3" fill="none"/><use xlink:href="#a" transform="matrix(1,0,0,1,1218.5,360) translate(83.88888888888889 25.444444444444443)"/><path d="M1218.5 761.67V726a6 6 0 0 1 6-6h268a6 6 0 0 1 6 6v35.67z" stroke="#5e5e5e" stroke-width="3" fill="#fcce14"/><path d="M1498.5 761.67V894a6 6 0 0 1-6 6h-268a6 6 0 0 1-6-6V761.67z" stroke="#5e5e5e" stroke-width="3" fill="none"/><use xlink:href="#b" transform="matrix(1,0,0,1,1218.5,720) translate(63.580246913580254 25.444444444444443)"/><path d="M580 761.67V726a6 6 0 0 1 6-6h268a6 6 0 0 1 6 6v35.67z" stroke="#5e5e5e" stroke-width="3" fill="#fcce14"/><path d="M860 761.67V894a6 6 0 0 1-6 6H586a6 6 0 0 1-6-6V761.67z" stroke="#5e5e5e" stroke-width="3" fill="none"/><use xlink:href="#c" transform="matrix(1,0,0,1,580,720) translate(96.85185185185185 25.444444444444443)"/><path d="M900 440.83h240v60H900z" fill="none"/><use xlink:href="#d" transform="matrix(1,0,0,1,900,440.8333333333333) translate(39.71604938271605 33.111111111111114)"/><use xlink:href="#e" transform="matrix(1,0,0,1,900,440.8333333333333) translate(156.20987654320987 33.111111111111114)"/><use xlink:href="#f" transform="matrix(1,0,0,1,900,440.8333333333333) translate(178.679012345679 33.111111111111114)"/><use xlink:href="#g" transform="matrix(1,0,0,1,900,440.8333333333333) translate(195.96296296296296 33.111111111111114)"/><path d="M600 800.83h240v60H600z" fill="none"/><use xlink:href="#h" transform="matrix(1,0,0,1,600,800.8333333333333) translate(7.888888888888886 16)"/><use xlink:href="#i" transform="matrix(1,0,0,1,600,800.8333333333333) translate(64.44444444444444 16)"/><use xlink:href="#j" transform="matrix(1,0,0,1,600,800.8333333333333) translate(97.77777777777777 16)"/><use xlink:href="#k" transform="matrix(1,0,0,1,600,800.8333333333333) translate(149.94444444444443 16)"/><use xlink:href="#l" transform="matrix(1,0,0,1,600,800.8333333333333) translate(42.333333333333314 40)"/><use xlink:href="#m" transform="matrix(1,0,0,1,600,800.8333333333333) translate(120.1111111111111 40)"/><use xlink:href="#n" transform="matrix(1,0,0,1,600,800.8333333333333) translate(143.38888888888889 40)"/><use xlink:href="#o" transform="matrix(1,0,0,1,600,800.8333333333333) translate(79.47222222222223 64)"/><path d="M1238.5 800h240v60h-240z" fill="none"/><use xlink:href="#h" transform="matrix(1,0,0,1,1238.5,800) translate(28.97222222222223 22)"/><use xlink:href="#i" transform="matrix(1,0,0,1,1238.5,800) translate(85.52777777777779 22)"/><use xlink:href="#p" transform="matrix(1,0,0,1,1238.5,800) translate(118.86111111111111 22)"/><use xlink:href="#q" transform="matrix(1,0,0,1,1238.5,800) translate(194.36111111111111 22)"/><use xlink:href="#r" transform="matrix(1,0,0,1,1238.5,800) translate(30.611111111111114 46)"/><use xlink:href="#s" transform="matrix(1,0,0,1,1238.5,800) translate(108.33333333333334 46)"/><use xlink:href="#t" transform="matrix(1,0,0,1,1238.5,800) translate(147.22222222222223 46)"/><use xlink:href="#u" transform="matrix(1,0,0,1,1238.5,800) translate(172.72222222222223 46)"/><path d="M1238.5 430h240v60h-240z" fill="none"/><use xlink:href="#v" transform="matrix(1,0,0,1,1238.5,429.99999999999994) translate(51.25 34)"/><use xlink:href="#w" transform="matrix(1,0,0,1,1238.5,429.99999999999994) translate(97.80555555555556 34)"/><use xlink:href="#x" transform="matrix(1,0,0,1,1238.5,429.99999999999994) translate(135.52777777777777 34)"/><path d="M590 430h260v60H590z" fill="none"/><use xlink:href="#v" transform="matrix(1,0,0,1,590,430) translate(17.36111111111113 34)"/><use xlink:href="#y" transform="matrix(1,0,0,1,590,430) translate(63.916666666666686 34)"/><use xlink:href="#s" transform="matrix(1,0,0,1,590,430) translate(118.25000000000001 34)"/><use xlink:href="#z" transform="matrix(1,0,0,1,590,430) translate(157.1388888888889 34)"/><use xlink:href="#u" transform="matrix(1,0,0,1,590,430) translate(205.97222222222223 34)"/><path d="M60 600h240v300H60z" fill="none"/><use xlink:href="#A" transform="matrix(1,0,0,1,60,600) translate(0 34.444444444444436)"/><use xlink:href="#B" transform="matrix(1,0,0,1,60,600) translate(0 61.11111111111111)"/><use xlink:href="#C" transform="matrix(1,0,0,1,60,600) translate(0 87.77777777777777)"/><use xlink:href="#D" transform="matrix(1,0,0,1,60,600) translate(0 114.44444444444443)"/><use xlink:href="#E" transform="matrix(1,0,0,1,60,600) translate(0 141.11111111111111)"/><use xlink:href="#F" transform="matrix(1,0,0,1,60,600) translate(0 167.77777777777777)"/><use xlink:href="#G" transform="matrix(1,0,0,1,60,600) translate(0 194.44444444444443)"/><use xlink:href="#H" transform="matrix(1,0,0,1,60,600) translate(0 221.1111111111111)"/><use xlink:href="#I" transform="matrix(1,0,0,1,60,600) translate(0 247.77777777777774)"/><use xlink:href="#J" transform="matrix(1,0,0,1,60,600) translate(0 274.4444444444444)"/><path d="M340 320h240v60H340z" fill="none"/><use xlink:href="#K" transform="matrix(1,0,0,1,340,320) translate(49.070987654321 33.111111111111114)"/><use xlink:href="#L" transform="matrix(1,0,0,1,340,320) translate(117.99074074074073 33.111111111111114)"/><use xlink:href="#M" transform="matrix(1,0,0,1,340,320) translate(126.63271604938271 33.111111111111114)"/><use xlink:href="#N" transform="matrix(1,0,0,1,340,320) translate(168.89197530864197 33.111111111111114)"/><use xlink:href="#O" transform="matrix(1,0,0,1,340,320) translate(182.287037037037 33.111111111111114)"/><path d="M1300 586.5h240v60h-240z" fill="none"/><use xlink:href="#P" transform="matrix(1,0,0,1,1300,586.5) translate(85.62654320987656 33.111111111111114)"/><use xlink:href="#Q" transform="matrix(1,0,0,1,1300,586.5) translate(150.05246913580248 33.111111111111114)"/><path d="M580 401.67V366a6 6 0 0 1 6-6h268a6 6 0 0 1 6 6v35.67z" stroke="#5e5e5e" stroke-width="3" fill="#fcce14"/><path d="M860 401.67V534a6 6 0 0 1-6 6H586a6 6 0 0 1-6-6V401.67z" stroke="#5e5e5e" stroke-width="3" fill="none"/><use xlink:href="#R" transform="matrix(1,0,0,1,580,360) translate(29.074074074074105 25.444444444444443)"/><path d="M540 646.5h240v60H540z" fill="none"/><use xlink:href="#S" transform="matrix(1,0,0,1,540,646.5) translate(66.54938271604938 33.111111111111114)"/><use xlink:href="#T" transform="matrix(1,0,0,1,540,646.5) translate(75.19135802469135 33.111111111111114)"/><use xlink:href="#U" transform="matrix(1,0,0,1,540,646.5) translate(117.4506172839506 33.111111111111114)"/><use xlink:href="#V" transform="matrix(1,0,0,1,540,646.5) translate(126.91358024691357 33.111111111111114)"/><path d="M120 401.67h240v60H120z" fill="none"/><use xlink:href="#W" transform="matrix(1,0,0,1,120,401.6666666666667) translate(95.30555555555554 33.111111111111114)"/><path d="M260 460c0 11.05-8.95 20-20 20s-20-8.95-20-20 8.95-20 20-20 20 8.95 20 20z" stroke="#333" stroke-width="3"/><path d="M262.5 460h299" stroke="#5e5e5e" stroke-width="2" fill="none"/><path d="M262.53 461h-1.14l.1-.93-.03-1.07h1.06z" stroke="#5e5e5e" stroke-width=".05" fill="#5e5e5e"/><path d="M576.76 460l-14.26 4.63v-9.26z" stroke="#5e5e5e" stroke-width="2" fill="#5e5e5e"/><path d="M862.5 460h339" stroke="#5e5e5e" stroke-width="2" fill="none"/><path d="M862.53 461h-1.03v-2h1.03z" stroke="#5e5e5e" stroke-width=".05" fill="#5e5e5e"/><path d="M1216.76 460l-14.26 4.63v-9.26z" stroke="#5e5e5e" stroke-width="2" fill="#5e5e5e"/><path d="M900 380h240v60H900z" fill="none"/><use xlink:href="#X" transform="matrix(1,0,0,1,900,380) translate(25.932098765432087 33.111111111111114)"/><use xlink:href="#e" transform="matrix(1,0,0,1,900,380) translate(169.99382716049382 33.111111111111114)"/><use xlink:href="#f" transform="matrix(1,0,0,1,900,380) translate(192.462962962963 33.111111111111114)"/><use xlink:href="#g" transform="matrix(1,0,0,1,900,380) translate(209.74691358024694 33.111111111111114)"/><path d="M1276 357.5v-33a6 6 0 0 0-6-6H814a6 6 0 0 0-6 6V340" stroke="#5e5e5e" stroke-width="2" fill="none"/><path d="M1277 358.5h-2v-1.03h2z" stroke="#5e5e5e" stroke-width=".05" fill="#5e5e5e"/><path d="M808 355.26L803.37 341h9.26z" stroke="#5e5e5e" stroke-width="2" fill="#5e5e5e"/><path d="M839.87 542.5V624a6 6 0 0 0 6 6h400.63a6 6 0 0 1 6 6v64" stroke="#5e5e5e" stroke-width="2" fill="none"/><path d="M840.87 542.53h-2v-1.03h2z" stroke="#5e5e5e" stroke-width=".05" fill="#5e5e5e"/><path d="M1252.5 715.26l-4.63-14.26h9.27z" stroke="#5e5e5e" stroke-width="2" fill="#5e5e5e"/><path d="M857.4 541.7V574a6 6 0 0 0 6 6H1334a6 6 0 0 1 6 6v114" stroke="#5e5e5e" stroke-width="2" fill="none"/><path d="M858.4 541.7h-2v-.6l1-.4 1-.63z" stroke="#5e5e5e" stroke-width=".05" fill="#5e5e5e"/><path d="M1340 715.26l-4.63-14.26h9.27z" stroke="#5e5e5e" stroke-width="2" fill="#5e5e5e"/><path d="M900 620h240v60H900z" fill="none"/><use xlink:href="#d" transform="matrix(1,0,0,1,900,620) translate(39.71604938271605 33.111111111111114)"/><use xlink:href="#e" transform="matrix(1,0,0,1,900,620) translate(156.20987654320987 33.111111111111114)"/><use xlink:href="#Y" transform="matrix(1,0,0,1,900,620) translate(178.679012345679 33.111111111111114)"/><use xlink:href="#g" transform="matrix(1,0,0,1,900,620) translate(195.96296296296296 33.111111111111114)"/><path d="M900 540h240v60H900z" fill="none"/><use xlink:href="#X" transform="matrix(1,0,0,1,900,540) translate(25.932098765432087 33.111111111111114)"/><use xlink:href="#e" transform="matrix(1,0,0,1,900,540) translate(169.99382716049382 33.111111111111114)"/><use xlink:href="#Y" transform="matrix(1,0,0,1,900,540) translate(192.462962962963 33.111111111111114)"/><use xlink:href="#g" transform="matrix(1,0,0,1,900,540) translate(209.74691358024694 33.111111111111114)"/><path d="M1501 744h33a6 6 0 0 0 6-6V276a6 6 0 0 0-6-6H776a6 6 0 0 0-6 6v64" stroke="#5e5e5e" stroke-width="2" fill="none"/><path d="M1501.03 745H1500v-2h1.03z" stroke="#5e5e5e" stroke-width=".05" fill="#5e5e5e"/><path d="M770 355.26L765.37 341h9.26z" stroke="#5e5e5e" stroke-width="2" fill="#5e5e5e"/><path d="M862.5 420h336" stroke="#5e5e5e" stroke-width="2" fill="none"/><path d="M862.53 421h-1.03v-2h1.03z" stroke="#5e5e5e" stroke-width=".05" fill="#5e5e5e"/><path d="M1213.76 420l-14.26 4.63v-9.26z" stroke="#5e5e5e" stroke-width="2" fill="#5e5e5e"/><path d="M1378.5 542.5V700" stroke="#5e5e5e" stroke-width="2" fill="none"/><path d="M1379.5 542.53h-2v-1.03h2z" stroke="#5e5e5e" stroke-width=".05" fill="#5e5e5e"/><path d="M1378.5 715.26l-4.63-14.26h9.27z" stroke="#5e5e5e" stroke-width="2" fill="#5e5e5e"/><path d="M900 761.67h240v60H900z" fill="none"/><g><use xlink:href="#P" transform="matrix(1,0,0,1,900,761.6666666666666) translate(85.62654320987656 33.111111111111114)"/><use xlink:href="#Q" transform="matrix(1,0,0,1,900,761.6666666666666) translate(150.05246913580248 33.111111111111114)"/></g><path d="M1216 810H880" stroke="#5e5e5e" stroke-width="2" fill="none"/><path d="M1217 811h-1.03v-2h1.03z" stroke="#5e5e5e" stroke-width=".05" fill="#5e5e5e"/><path d="M864.74 810l14.26-4.63v9.26z" stroke="#5e5e5e" stroke-width="2" fill="#5e5e5e"/><path d="M721.33 717.5V560" stroke="#5e5e5e" stroke-width="2" fill="none"/><path d="M722.33 718.5h-2v-1.03h2z" stroke="#5e5e5e" stroke-width=".05" fill="#5e5e5e"/><path d="M721.33 544.74l4.64 14.26h-9.27z" stroke="#5e5e5e" stroke-width="2" fill="#5e5e5e"/><path d="M577.5 390h-33a6 6 0 0 1-6-6v-59.5a6 6 0 0 1 6-6h49.62a6 6 0 0 1 6 6V340" stroke="#5e5e5e" stroke-width="2" fill="none"/><path d="M578.5 391h-1.03v-2h1.03z" stroke="#5e5e5e" stroke-width=".05" fill="#5e5e5e"/><path d="M600.12 355.26L595.48 341h9.27z" stroke="#5e5e5e" stroke-width="2" fill="#5e5e5e"/><path d="M615 357.5V276a6 6 0 0 1 6-6h30a6 6 0 0 1 6 6v64" stroke="#5e5e5e" stroke-width="2" fill="none"/><path d="M616 358.5h-2v-1.03h2z" stroke="#5e5e5e" stroke-width=".05" fill="#5e5e5e"/><path d="M657 355.26L652.37 341h9.26z" stroke="#5e5e5e" stroke-width="2" fill="#5e5e5e"/><path d="M460 220h240v60H460z" fill="none"/><g><use xlink:href="#Z" transform="matrix(1,0,0,1,460,220) translate(53.111111111111114 33.111111111111114)"/><use xlink:href="#L" transform="matrix(1,0,0,1,460,220) translate(104.87654320987653 33.111111111111114)"/><use xlink:href="#M" transform="matrix(1,0,0,1,460,220) translate(113.5185185185185 33.111111111111114)"/><use xlink:href="#aa" transform="matrix(1,0,0,1,460,220) translate(155.77777777777777 33.111111111111114)"/><use xlink:href="#ab" transform="matrix(1,0,0,1,460,220) translate(178.2469135802469 33.111111111111114)"/></g><path d="M670 357.5V216a6 6 0 0 1 6-6h48a6 6 0 0 1 6 6v125.5" stroke="#5e5e5e" stroke-width="2" fill="none"/><path d="M671 358.5h-2v-1.03h2z" stroke="#5e5e5e" stroke-width=".05" fill="#5e5e5e"/><path d="M730 356.76l-4.63-14.26h9.26z" stroke="#5e5e5e" stroke-width="2" fill="#5e5e5e"/><path d="M540 160h240v60H540z" fill="none"/><g><use xlink:href="#ac" transform="matrix(1,0,0,1,540,160) translate(53.111111111111114 33.111111111111114)"/><use xlink:href="#L" transform="matrix(1,0,0,1,540,160) translate(104.87654320987653 33.111111111111114)"/><use xlink:href="#M" transform="matrix(1,0,0,1,540,160) translate(113.5185185185185 33.111111111111114)"/><use xlink:href="#aa" transform="matrix(1,0,0,1,540,160) translate(155.77777777777777 33.111111111111114)"/><use xlink:href="#ad" transform="matrix(1,0,0,1,540,160) translate(178.2469135802469 33.111111111111114)"/></g><path d="M577.5 499H516a6 6 0 0 0-6 6v23.06a6 6 0 0 0 6 6h44" stroke="#5e5e5e" stroke-width="2" fill="none"/><path d="M578.5 500h-1.03v-2h1.03z" stroke="#5e5e5e" stroke-width=".05" fill="#5e5e5e"/><path d="M575.26 534.06L561 538.7v-9.28z" stroke="#5e5e5e" stroke-width="2" fill="#5e5e5e"/><path d="M320 490h240v60H320z" fill="none"/><g><use xlink:href="#ae" transform="matrix(1,0,0,1,320,489.99999999999994) translate(53.111111111111114 33.111111111111114)"/><use xlink:href="#L" transform="matrix(1,0,0,1,320,489.99999999999994) translate(104.87654320987653 33.111111111111114)"/><use xlink:href="#M" transform="matrix(1,0,0,1,320,489.99999999999994) translate(113.5185185185185 33.111111111111114)"/><use xlink:href="#aa" transform="matrix(1,0,0,1,320,489.99999999999994) translate(155.77777777777777 33.111111111111114)"/><use xlink:href="#af" transform="matrix(1,0,0,1,320,489.99999999999994) translate(178.2469135802469 33.111111111111114)"/></g><path d="M591 542.5v33a6 6 0 0 0 6 6h32a6 6 0 0 0 6-6V560" stroke="#5e5e5e" stroke-width="2" fill="none"/><path d="M592 542.53h-2v-1.03h2z" stroke="#5e5e5e" stroke-width=".05" fill="#5e5e5e"/><path d="M635 544.74l4.63 14.26h-9.26z" stroke="#5e5e5e" stroke-width="2" fill="#5e5e5e"/><path d="M380 540h240v60H380z" fill="none"/><g><use xlink:href="#ag" transform="matrix(1,0,0,1,380,540) translate(44.469135802469154 33.111111111111114)"/><use xlink:href="#L" transform="matrix(1,0,0,1,380,540) translate(104.87654320987656 33.111111111111114)"/><use xlink:href="#M" transform="matrix(1,0,0,1,380,540) translate(113.51851851851852 33.111111111111114)"/><use xlink:href="#aa" transform="matrix(1,0,0,1,380,540) translate(155.77777777777777 33.111111111111114)"/><use xlink:href="#ah" transform="matrix(1,0,0,1,380,540) translate(178.24691358024688 33.111111111111114)"/></g><path d="M240 600.83h240v260H240z" fill="none"/><g><use xlink:href="#ai" transform="matrix(1,0,0,1,240,600.8333333333333) translate(0 81.11111111111111)"/><use xlink:href="#aj" transform="matrix(1,0,0,1,240,600.8333333333333) translate(0 107.77777777777777)"/><use xlink:href="#ak" transform="matrix(1,0,0,1,240,600.8333333333333) translate(0 134.44444444444443)"/><use xlink:href="#al" transform="matrix(1,0,0,1,240,600.8333333333333) translate(0 161.1111111111111)"/><use xlink:href="#c" transform="matrix(1,0,0,1,240,600.8333333333333) translate(0 187.77777777777777)"/></g><path d="M698.67 542.5V594a6 6 0 0 1-6 6H670a6 6 0 0 1-6-6v-34" stroke="#5e5e5e" stroke-width="2" fill="none"/><path d="M699.67 542.53h-2v-1.03h2z" stroke="#5e5e5e" stroke-width=".05" fill="#5e5e5e"/><path d="M664 544.74l4.63 14.26h-9.26z" stroke="#5e5e5e" stroke-width="2" fill="#5e5e5e"/><path d="M520 586.5h240v60H520z" fill="none"/><g><use xlink:href="#am" transform="matrix(1,0,0,1,520,586.5) translate(73.9814814814815 33.111111111111114)"/><use xlink:href="#an" transform="matrix(1,0,0,1,520,586.5) translate(161.69753086419752 33.111111111111114)"/></g><defs><path fill="#333" d="M240 0l2-218c-23 76-54 145-80 218h-23L58-218 59 0H30v-248h44l77 211c21-75 51-140 76-211h43V0h-30" id="ao"/><path fill="#333" d="M140-251c81 0 123 46 123 126C263-46 219 4 140 4 59 4 17-45 17-125s42-126 123-126zm0 227c63 0 89-41 89-101s-29-99-89-99c-61 0-89 39-89 99S79-25 140-24" id="ap"/><path fill="#333" d="M137 0h-34L2-248h35l83 218 83-218h36" id="aq"/><path fill="#333" d="M33 0v-248h34V0H33" id="ar"/><path fill="#333" d="M30 0v-248h187v28H63v79h144v27H63v87h162V0H30" id="as"/><path fill="#333" d="M-5 72V49h209v23H-5" id="at"/><path fill="#333" d="M185-189c-5-48-123-54-124 2 14 75 158 14 163 119 3 78-121 87-175 55-17-10-28-26-33-46l33-7c5 56 141 63 141-1 0-78-155-14-162-118-5-82 145-84 179-34 5 7 8 16 11 25" id="au"/><path fill="#333" d="M127-220V0H93v-220H8v-28h204v28h-85" id="av"/><g id="a"><use transform="matrix(0.06172839506172839,0,0,0.06172839506172839,0,0)" xlink:href="#ao"/><use transform="matrix(0.06172839506172839,0,0,0.06172839506172839,18.456790123456788,0)" xlink:href="#ap"/><use transform="matrix(0.06172839506172839,0,0,0.06172839506172839,35.74074074074073,0)" xlink:href="#aq"/><use transform="matrix(0.06172839506172839,0,0,0.06172839506172839,50.55555555555554,0)" xlink:href="#ar"/><use transform="matrix(0.06172839506172839,0,0,0.06172839506172839,56.728395061728385,0)" xlink:href="#as"/><use transform="matrix(0.06172839506172839,0,0,0.06172839506172839,71.5432098765432,0)" xlink:href="#at"/><use transform="matrix(0.06172839506172839,0,0,0.06172839506172839,83.88888888888889,0)" xlink:href="#au"/><use transform="matrix(0.06172839506172839,0,0,0.06172839506172839,98.7037037037037,0)" xlink:href="#av"/></g><path fill="#333" d="M30-248c87 1 191-15 191 75 0 78-77 80-158 76V0H30v-248zm33 125c57 0 124 11 124-50 0-59-68-47-124-48v98" id="aw"/><path fill="#333" d="M212-179c-10-28-35-45-73-45-59 0-87 40-87 99 0 60 29 101 89 101 43 0 62-24 78-52l27 14C228-24 195 4 139 4 59 4 22-46 18-125c-6-104 99-153 187-111 19 9 31 26 39 46" id="ax"/><path fill="#333" d="M233-177c-1 41-23 64-60 70L243 0h-38l-65-103H63V0H30v-248c88 3 205-21 203 71zM63-129c60-2 137 13 137-47 0-61-80-42-137-45v92" id="ay"/><path fill="#333" d="M190 0L58-211 59 0H30v-248h39L202-35l-2-213h31V0h-41" id="az"/><g id="b"><use transform="matrix(0.06172839506172839,0,0,0.06172839506172839,0,0)" xlink:href="#aw"/><use transform="matrix(0.06172839506172839,0,0,0.06172839506172839,14.814814814814813,0)" xlink:href="#ap"/><use transform="matrix(0.06172839506172839,0,0,0.06172839506172839,32.09876543209876,0)" xlink:href="#aw"/><use transform="matrix(0.06172839506172839,0,0,0.06172839506172839,46.91358024691357,0)" xlink:href="#ax"/><use transform="matrix(0.06172839506172839,0,0,0.06172839506172839,62.90123456790122,0)" xlink:href="#ap"/><use transform="matrix(0.06172839506172839,0,0,0.06172839506172839,80.18518518518516,0)" xlink:href="#ay"/><use transform="matrix(0.06172839506172839,0,0,0.06172839506172839,96.17283950617282,0)" xlink:href="#az"/><use transform="matrix(0.06172839506172839,0,0,0.06172839506172839,112.16049382716048,0)" xlink:href="#at"/><use transform="matrix(0.06172839506172839,0,0,0.06172839506172839,124.50617283950616,0)" xlink:href="#au"/><use transform="matrix(0.06172839506172839,0,0,0.06172839506172839,139.320987654321,0)" xlink:href="#av"/></g><path fill="#333" d="M160-131c35 5 61 23 61 61C221 17 115-2 30 0v-248c76 3 177-17 177 60 0 33-19 50-47 57zm-97-11c50-1 110 9 110-42 0-47-63-36-110-37v79zm0 115c55-2 124 14 124-45 0-56-70-42-124-44v89" id="aA"/><path fill="#333" d="M232-93c-1 65-40 97-104 97C67 4 28-28 28-90v-158h33c8 89-33 224 67 224 102 0 64-133 71-224h33v155" id="aB"/><path fill="#333" d="M137-103V0h-34v-103L8-248h37l75 118 75-118h37" id="aC"/><g id="c"><use transform="matrix(0.06172839506172839,0,0,0.06172839506172839,0,0)" xlink:href="#aA"/><use transform="matrix(0.06172839506172839,0,0,0.06172839506172839,14.814814814814813,0)" xlink:href="#aB"/><use transform="matrix(0.06172839506172839,0,0,0.06172839506172839,30.80246913580247,0)" xlink:href="#aC"/><use transform="matrix(0.06172839506172839,0,0,0.06172839506172839,45.61728395061728,0)" xlink:href="#at"/><use transform="matrix(0.06172839506172839,0,0,0.06172839506172839,57.962962962962955,0)" xlink:href="#au"/><use transform="matrix(0.06172839506172839,0,0,0.06172839506172839,72.77777777777777,0)" xlink:href="#av"/></g><path fill="#333" d="M26 75v-336h71v23H56V52h41v23H26" id="aD"/><path fill="#333" d="M115-194c55 1 70 41 70 98S169 2 115 4C84 4 66-9 55-30l1 105H24l-1-265h31l2 30c10-21 28-34 59-34zm-8 174c40 0 45-34 45-75s-6-73-45-74c-42 0-51 32-51 76 0 43 10 73 51 73" id="aE"/><path fill="#333" d="M100-194c62-1 85 37 85 99 1 63-27 99-86 99S16-35 15-95c0-66 28-99 85-99zM99-20c44 1 53-31 53-75 0-43-8-75-51-75s-53 32-53 75 10 74 51 75" id="aF"/><path fill="#333" d="M96-169c-40 0-48 33-48 73s9 75 48 75c24 0 41-14 43-38l32 2c-6 37-31 61-74 61-59 0-76-41-82-99-10-93 101-131 147-64 4 7 5 14 7 22l-32 3c-4-21-16-35-41-35" id="aG"/><path fill="#333" d="M114-163C36-179 61-72 57 0H25l-1-190h30c1 12-1 29 2 39 6-27 23-49 58-41v29" id="aH"/><path fill="#333" d="M117-194c89-4 53 116 60 194h-32v-121c0-31-8-49-39-48C34-167 62-67 57 0H25l-1-190h30c1 10-1 24 2 32 11-22 29-35 61-36" id="aI"/><path fill="#333" d="M63-220v92h138v28H63V0H30v-248h175v28H63" id="aJ"/><path fill="#333" d="M24 0v-261h32V0H24" id="aK"/><path fill="#333" d="M141-36C126-15 110 5 73 4 37 3 15-17 15-53c-1-64 63-63 125-63 3-35-9-54-41-54-24 1-41 7-42 31l-33-3c5-37 33-52 76-52 45 0 72 20 72 64v82c-1 20 7 32 28 27v20c-31 9-61-2-59-35zM48-53c0 20 12 33 32 33 41-3 63-29 60-74-43 2-92-5-92 41" id="aL"/><path fill="#333" d="M177-190C167-65 218 103 67 71c-23-6-38-20-44-43l32-5c15 47 100 32 89-28v-30C133-14 115 1 83 1 29 1 15-40 15-95c0-56 16-97 71-98 29-1 48 16 59 35 1-10 0-23 2-32h30zM94-22c36 0 50-32 50-73 0-42-14-75-50-75-39 0-46 34-46 75s6 73 46 73" id="aM"/><g id="d"><use transform="matrix(0.04320987654320988,0,0,0.04320987654320988,0,0)" xlink:href="#aB"/><use transform="matrix(0.04320987654320988,0,0,0.04320987654320988,11.19135802469136,0)" xlink:href="#aw"/><use transform="matrix(0.04320987654320988,0,0,0.04320987654320988,21.56172839506173,0)" xlink:href="#aD"/><use transform="matrix(0.04320987654320988,0,0,0.04320987654320988,25.88271604938272,0)" xlink:href="#aE"/><use transform="matrix(0.04320987654320988,0,0,0.04320987654320988,34.5246913580247,0)" xlink:href="#aF"/><use transform="matrix(0.04320987654320988,0,0,0.04320987654320988,43.16666666666667,0)" xlink:href="#aE"/><use transform="matrix(0.04320987654320988,0,0,0.04320987654320988,51.808641975308646,0)" xlink:href="#aG"/><use transform="matrix(0.04320987654320988,0,0,0.04320987654320988,59.586419753086425,0)" xlink:href="#aF"/><use transform="matrix(0.04320987654320988,0,0,0.04320987654320988,68.2283950617284,0)" xlink:href="#aH"/><use transform="matrix(0.04320987654320988,0,0,0.04320987654320988,73.37037037037038,0)" xlink:href="#aI"/><use transform="matrix(0.04320987654320988,0,0,0.04320987654320988,82.01234567901236,0)" xlink:href="#aJ"/><use transform="matrix(0.04320987654320988,0,0,0.04320987654320988,91.47530864197532,0)" xlink:href="#aK"/><use transform="matrix(0.04320987654320988,0,0,0.04320987654320988,94.8888888888889,0)" xlink:href="#aL"/><use transform="matrix(0.04320987654320988,0,0,0.04320987654320988,103.53086419753087,0)" xlink:href="#aM"/></g><path fill="#333" d="M18-150v-26h174v26H18zm0 90v-26h174v26H18" id="aN"/><g id="e"><use transform="matrix(0.04320987654320988,0,0,0.04320987654320988,0,0)" xlink:href="#aN"/><use transform="matrix(0.04320987654320988,0,0,0.04320987654320988,9.074074074074074,0)" xlink:href="#aN"/></g><path fill="#333" d="M101-251c68 0 85 55 85 127S166 4 100 4C33 4 14-52 14-124c0-73 17-127 87-127zm-1 229c47 0 54-49 54-102s-4-102-53-102c-51 0-55 48-55 102 0 53 5 102 54 102" id="aO"/><path fill="#333" d="M3 75V52h41v-290H3v-23h71V75H3" id="aP"/><g id="f"><use transform="matrix(0.04320987654320988,0,0,0.04320987654320988,0,0)" xlink:href="#aO"/><use transform="matrix(0.04320987654320988,0,0,0.04320987654320988,8.641975308641976,0)" xlink:href="#aP"/></g><path fill="#333" d="M0 4l72-265h28L28 4H0" id="aQ"/><use transform="matrix(0.04320987654320988,0,0,0.04320987654320988,0,0)" xlink:href="#aQ" id="g"/><path fill="#333" d="M24-231v-30h32v30H24zM24 0v-190h32V0H24" id="aR"/><path fill="#333" d="M59-47c-2 24 18 29 38 22v24C64 9 27 4 27-40v-127H5v-23h24l9-43h21v43h35v23H59v120" id="aS"/><path fill="#333" d="M135-143c-3-34-86-38-87 0 15 53 115 12 119 90S17 21 10-45l28-5c4 36 97 45 98 0-10-56-113-15-118-90-4-57 82-63 122-42 12 7 21 19 24 35" id="aT"/><g id="h"><use transform="matrix(0.05555555555555555,0,0,0.05555555555555555,0,0)" xlink:href="#aw"/><use transform="matrix(0.05555555555555555,0,0,0.05555555555555555,13.333333333333332,0)" xlink:href="#aH"/><use transform="matrix(0.05555555555555555,0,0,0.05555555555555555,19.944444444444443,0)" xlink:href="#aR"/><use transform="matrix(0.05555555555555555,0,0,0.05555555555555555,24.333333333333332,0)" xlink:href="#aI"/><use transform="matrix(0.05555555555555555,0,0,0.05555555555555555,35.44444444444444,0)" xlink:href="#aS"/><use transform="matrix(0.05555555555555555,0,0,0.05555555555555555,41,0)" xlink:href="#aT"/></g><path fill="#333" d="M106-169C34-169 62-67 57 0H25v-261h32l-1 103c12-21 28-36 61-36 89 0 53 116 60 194h-32v-121c2-32-8-49-39-48" id="aU"/><path fill="#333" d="M100-194c63 0 86 42 84 106H49c0 40 14 67 53 68 26 1 43-12 49-29l28 8c-11 28-37 45-77 45C44 4 14-33 15-96c1-61 26-98 85-98zm52 81c6-60-76-77-97-28-3 7-6 17-6 28h103" id="aV"/><g id="i"><use transform="matrix(0.05555555555555555,0,0,0.05555555555555555,0,0)" xlink:href="#aS"/><use transform="matrix(0.05555555555555555,0,0,0.05555555555555555,5.555555555555555,0)" xlink:href="#aU"/><use transform="matrix(0.05555555555555555,0,0,0.05555555555555555,16.666666666666664,0)" xlink:href="#aV"/></g><path fill="#333" d="M143 0L79-87 56-68V0H24v-261h32v163l83-92h37l-77 82L181 0h-38" id="aW"/><g id="j"><use transform="matrix(0.05555555555555555,0,0,0.05555555555555555,0,0)" xlink:href="#aS"/><use transform="matrix(0.05555555555555555,0,0,0.05555555555555555,5.555555555555555,0)" xlink:href="#aR"/><use transform="matrix(0.05555555555555555,0,0,0.05555555555555555,9.944444444444443,0)" xlink:href="#aG"/><use transform="matrix(0.05555555555555555,0,0,0.05555555555555555,19.944444444444443,0)" xlink:href="#aW"/><use transform="matrix(0.05555555555555555,0,0,0.05555555555555555,29.944444444444443,0)" xlink:href="#aV"/><use transform="matrix(0.05555555555555555,0,0,0.05555555555555555,41.05555555555556,0)" xlink:href="#aS"/></g><path fill="#333" d="M84 4C-5 8 30-112 23-190h32v120c0 31 7 50 39 49 72-2 45-101 50-169h31l1 190h-30c-1-10 1-25-2-33-11 22-28 36-60 37" id="aX"/><g id="k"><use transform="matrix(0.05555555555555555,0,0,0.05555555555555555,0,0)" xlink:href="#aE"/><use transform="matrix(0.05555555555555555,0,0,0.05555555555555555,11.11111111111111,0)" xlink:href="#aX"/><use transform="matrix(0.05555555555555555,0,0,0.05555555555555555,22.22222222222222,0)" xlink:href="#aH"/><use transform="matrix(0.05555555555555555,0,0,0.05555555555555555,28.833333333333332,0)" xlink:href="#aG"/><use transform="matrix(0.05555555555555555,0,0,0.05555555555555555,38.83333333333333,0)" xlink:href="#aU"/><use transform="matrix(0.05555555555555555,0,0,0.05555555555555555,49.94444444444444,0)" xlink:href="#aL"/><use transform="matrix(0.05555555555555555,0,0,0.05555555555555555,61.05555555555555,0)" xlink:href="#aT"/><use transform="matrix(0.05555555555555555,0,0,0.05555555555555555,71.05555555555556,0)" xlink:href="#aV"/></g><g id="l"><use transform="matrix(0.05555555555555555,0,0,0.05555555555555555,0,0)" xlink:href="#aT"/><use transform="matrix(0.05555555555555555,0,0,0.05555555555555555,10,0)" xlink:href="#aX"/><use transform="matrix(0.05555555555555555,0,0,0.05555555555555555,21.11111111111111,0)" xlink:href="#aG"/><use transform="matrix(0.05555555555555555,0,0,0.05555555555555555,31.11111111111111,0)" xlink:href="#aG"/><use transform="matrix(0.05555555555555555,0,0,0.05555555555555555,41.111111111111114,0)" xlink:href="#aV"/><use transform="matrix(0.05555555555555555,0,0,0.05555555555555555,52.22222222222223,0)" xlink:href="#aT"/><use transform="matrix(0.05555555555555555,0,0,0.05555555555555555,62.22222222222223,0)" xlink:href="#aT"/></g><g id="m"><use transform="matrix(0.05555555555555555,0,0,0.05555555555555555,0,0)" xlink:href="#aF"/><use transform="matrix(0.05555555555555555,0,0,0.05555555555555555,11.11111111111111,0)" xlink:href="#aH"/></g><path fill="#333" d="M101-234c-31-9-42 10-38 44h38v23H63V0H32v-167H5v-23h27c-7-52 17-82 69-68v24" id="aY"/><g id="n"><use transform="matrix(0.05555555555555555,0,0,0.05555555555555555,0,0)" xlink:href="#aY"/><use transform="matrix(0.05555555555555555,0,0,0.05555555555555555,5.555555555555555,0)" xlink:href="#aL"/><use transform="matrix(0.05555555555555555,0,0,0.05555555555555555,16.666666666666664,0)" xlink:href="#aR"/><use transform="matrix(0.05555555555555555,0,0,0.05555555555555555,21.055555555555554,0)" xlink:href="#aK"/><use transform="matrix(0.05555555555555555,0,0,0.05555555555555555,25.444444444444443,0)" xlink:href="#aX"/><use transform="matrix(0.05555555555555555,0,0,0.05555555555555555,36.55555555555556,0)" xlink:href="#aH"/><use transform="matrix(0.05555555555555555,0,0,0.05555555555555555,43.16666666666667,0)" xlink:href="#aV"/></g><path fill="#333" d="M210-169c-67 3-38 105-44 169h-31v-121c0-29-5-50-35-48C34-165 62-65 56 0H25l-1-190h30c1 10-1 24 2 32 10-44 99-50 107 0 11-21 27-35 58-36 85-2 47 119 55 194h-31v-121c0-29-5-49-35-48" id="aZ"/><g id="o"><use transform="matrix(0.05555555555555555,0,0,0.05555555555555555,0,0)" xlink:href="#aZ"/><use transform="matrix(0.05555555555555555,0,0,0.05555555555555555,16.61111111111111,0)" xlink:href="#aV"/><use transform="matrix(0.05555555555555555,0,0,0.05555555555555555,27.72222222222222,0)" xlink:href="#aT"/><use transform="matrix(0.05555555555555555,0,0,0.05555555555555555,37.72222222222222,0)" xlink:href="#aT"/><use transform="matrix(0.05555555555555555,0,0,0.05555555555555555,47.72222222222222,0)" xlink:href="#aL"/><use transform="matrix(0.05555555555555555,0,0,0.05555555555555555,58.83333333333333,0)" xlink:href="#aM"/><use transform="matrix(0.05555555555555555,0,0,0.05555555555555555,69.94444444444444,0)" xlink:href="#aV"/></g><path fill="#333" d="M145-31C134-9 116 4 85 4 32 4 16-35 15-94c0-59 17-99 70-100 32-1 48 14 60 33 0-11-1-24 2-32h30l-1 268h-32zM93-21c41 0 51-33 51-76s-8-73-50-73c-40 0-46 35-46 75s5 74 45 74" id="ba"/><path fill="#333" d="M179-190L93 31C79 59 56 82 12 73V49c39 6 53-20 64-50L1-190h34L92-34l54-156h33" id="bb"/><g id="p"><use transform="matrix(0.05555555555555555,0,0,0.05555555555555555,0,0)" xlink:href="#ba"/><use transform="matrix(0.05555555555555555,0,0,0.05555555555555555,11.11111111111111,0)" xlink:href="#aX"/><use transform="matrix(0.05555555555555555,0,0,0.05555555555555555,22.22222222222222,0)" xlink:href="#aL"/><use transform="matrix(0.05555555555555555,0,0,0.05555555555555555,33.33333333333333,0)" xlink:href="#aI"/><use transform="matrix(0.05555555555555555,0,0,0.05555555555555555,44.44444444444444,0)" xlink:href="#aS"/><use transform="matrix(0.05555555555555555,0,0,0.05555555555555555,50,0)" xlink:href="#aR"/><use transform="matrix(0.05555555555555555,0,0,0.05555555555555555,54.388888888888886,0)" xlink:href="#aS"/><use transform="matrix(0.05555555555555555,0,0,0.05555555555555555,59.94444444444444,0)" xlink:href="#bb"/></g><g id="q"><use transform="matrix(0.05555555555555555,0,0,0.05555555555555555,0,0)" xlink:href="#aF"/><use transform="matrix(0.05555555555555555,0,0,0.05555555555555555,11.11111111111111,0)" xlink:href="#aY"/></g><g id="r"><use transform="matrix(0.05555555555555555,0,0,0.05555555555555555,0,0)" xlink:href="#aE"/><use transform="matrix(0.05555555555555555,0,0,0.05555555555555555,11.11111111111111,0)" xlink:href="#aF"/><use transform="matrix(0.05555555555555555,0,0,0.05555555555555555,22.22222222222222,0)" xlink:href="#aE"/><use transform="matrix(0.05555555555555555,0,0,0.05555555555555555,33.33333333333333,0)" xlink:href="#aG"/><use transform="matrix(0.05555555555555555,0,0,0.05555555555555555,43.33333333333333,0)" xlink:href="#aF"/><use transform="matrix(0.05555555555555555,0,0,0.05555555555555555,54.44444444444444,0)" xlink:href="#aH"/><use transform="matrix(0.05555555555555555,0,0,0.05555555555555555,61.05555555555555,0)" xlink:href="#aI"/></g><path fill="#333" d="M85-194c31 0 48 13 60 33l-1-100h32l1 261h-30c-2-10 0-23-3-31C134-8 116 4 85 4 32 4 16-35 15-94c0-66 23-100 70-100zm9 24c-40 0-46 34-46 75 0 40 6 74 45 74 42 0 51-32 51-76 0-42-9-74-50-73" id="bc"/><g id="s"><use transform="matrix(0.05555555555555555,0,0,0.05555555555555555,0,0)" xlink:href="#aL"/><use transform="matrix(0.05555555555555555,0,0,0.05555555555555555,11.11111111111111,0)" xlink:href="#aI"/><use transform="matrix(0.05555555555555555,0,0,0.05555555555555555,22.22222222222222,0)" xlink:href="#bc"/></g><g id="t"><use transform="matrix(0.05555555555555555,0,0,0.05555555555555555,0,0)" xlink:href="#aR"/><use transform="matrix(0.05555555555555555,0,0,0.05555555555555555,4.388888888888888,0)" xlink:href="#aS"/><use transform="matrix(0.05555555555555555,0,0,0.05555555555555555,9.944444444444443,0)" xlink:href="#aT"/></g><g id="u"><use transform="matrix(0.05555555555555555,0,0,0.05555555555555555,0,0)" xlink:href="#aG"/><use transform="matrix(0.05555555555555555,0,0,0.05555555555555555,10,0)" xlink:href="#aF"/><use transform="matrix(0.05555555555555555,0,0,0.05555555555555555,21.11111111111111,0)" xlink:href="#aT"/><use transform="matrix(0.05555555555555555,0,0,0.05555555555555555,31.11111111111111,0)" xlink:href="#aS"/></g><g id="v"><use transform="matrix(0.05555555555555555,0,0,0.05555555555555555,0,0)" xlink:href="#aw"/><use transform="matrix(0.05555555555555555,0,0,0.05555555555555555,13.333333333333332,0)" xlink:href="#aH"/><use transform="matrix(0.05555555555555555,0,0,0.05555555555555555,19.944444444444443,0)" xlink:href="#aR"/><use transform="matrix(0.05555555555555555,0,0,0.05555555555555555,24.333333333333332,0)" xlink:href="#aI"/><use transform="matrix(0.05555555555555555,0,0,0.05555555555555555,35.44444444444444,0)" xlink:href="#aS"/></g><g id="w"><use transform="matrix(0.05555555555555555,0,0,0.05555555555555555,0,0)" xlink:href="#aR"/><use transform="matrix(0.05555555555555555,0,0,0.05555555555555555,4.388888888888888,0)" xlink:href="#aI"/><use transform="matrix(0.05555555555555555,0,0,0.05555555555555555,15.5,0)" xlink:href="#aY"/><use transform="matrix(0.05555555555555555,0,0,0.05555555555555555,21.055555555555557,0)" xlink:href="#aF"/></g><path fill="#333" d="M108 0H70L1-190h34L89-25l56-165h34" id="bd"/><g id="x"><use transform="matrix(0.05555555555555555,0,0,0.05555555555555555,0,0)" xlink:href="#aZ"/><use transform="matrix(0.05555555555555555,0,0,0.05555555555555555,16.61111111111111,0)" xlink:href="#aF"/><use transform="matrix(0.05555555555555555,0,0,0.05555555555555555,27.72222222222222,0)" xlink:href="#bd"/><use transform="matrix(0.05555555555555555,0,0,0.05555555555555555,37.72222222222222,0)" xlink:href="#aR"/><use transform="matrix(0.05555555555555555,0,0,0.05555555555555555,42.11111111111111,0)" xlink:href="#aV"/></g><g id="y"><use transform="matrix(0.05555555555555555,0,0,0.05555555555555555,0,0)" xlink:href="#aG"/><use transform="matrix(0.05555555555555555,0,0,0.05555555555555555,10,0)" xlink:href="#aH"/><use transform="matrix(0.05555555555555555,0,0,0.05555555555555555,16.61111111111111,0)" xlink:href="#aV"/><use transform="matrix(0.05555555555555555,0,0,0.05555555555555555,27.72222222222222,0)" xlink:href="#bc"/><use transform="matrix(0.05555555555555555,0,0,0.05555555555555555,38.83333333333333,0)" xlink:href="#aR"/><use transform="matrix(0.05555555555555555,0,0,0.05555555555555555,43.222222222222214,0)" xlink:href="#aS"/></g><g id="z"><use transform="matrix(0.05555555555555555,0,0,0.05555555555555555,0,0)" xlink:href="#aS"/><use transform="matrix(0.05555555555555555,0,0,0.05555555555555555,5.555555555555555,0)" xlink:href="#aF"/><use transform="matrix(0.05555555555555555,0,0,0.05555555555555555,16.666666666666664,0)" xlink:href="#aS"/><use transform="matrix(0.05555555555555555,0,0,0.05555555555555555,22.22222222222222,0)" xlink:href="#aL"/><use transform="matrix(0.05555555555555555,0,0,0.05555555555555555,33.33333333333333,0)" xlink:href="#aK"/></g><path fill="#333" d="M24 0v-248h195v40H76v63h132v40H76v65h150V0H24" id="be"/><path fill="#333" d="M128 0H69L1-190h53L99-40l48-150h52" id="bf"/><path fill="#333" d="M185-48c-13 30-37 53-82 52C43 2 14-33 14-96s30-98 90-98c62 0 83 45 84 108H66c0 31 8 55 39 56 18 0 30-7 34-22zm-45-69c5-46-57-63-70-21-2 6-4 13-4 21h74" id="bg"/><path fill="#333" d="M135-194c87-1 58 113 63 194h-50c-7-57 23-157-34-157-59 0-34 97-39 157H25l-1-190h47c2 12-1 28 3 38 12-26 28-41 61-42" id="bh"/><path fill="#333" d="M115-3C79 11 28 4 28-45v-112H4v-33h27l15-45h31v45h36v33H77v99c-1 23 16 31 38 25v30" id="bi"/><path fill="#333" d="M137-138c1-29-70-34-71-4 15 46 118 7 119 86 1 83-164 76-172 9l43-7c4 19 20 25 44 25 33 8 57-30 24-41C81-84 22-81 20-136c-2-80 154-74 161-7" id="bj"/><path fill="#333" d="M35-132v-50h50v50H35zM35 0v-49h50V0H35" id="bk"/><g id="A"><use transform="matrix(0.06172839506172839,0,0,0.06172839506172839,0,0)" xlink:href="#be"/><use transform="matrix(0.06172839506172839,0,0,0.06172839506172839,14.814814814814813,0)" xlink:href="#bf"/><use transform="matrix(0.06172839506172839,0,0,0.06172839506172839,27.160493827160494,0)" xlink:href="#bg"/><use transform="matrix(0.06172839506172839,0,0,0.06172839506172839,39.50617283950617,0)" xlink:href="#bh"/><use transform="matrix(0.06172839506172839,0,0,0.06172839506172839,53.02469135802469,0)" xlink:href="#bi"/><use transform="matrix(0.06172839506172839,0,0,0.06172839506172839,60.37037037037037,0)" xlink:href="#bj"/><use transform="matrix(0.06172839506172839,0,0,0.06172839506172839,72.71604938271605,0)" xlink:href="#bk"/></g><path fill="#333" d="M27 0v-27h64v-190l-56 39v-29l58-41h29v221h61V0H27" id="bl"/><g id="B"><use transform="matrix(0.06172839506172839,0,0,0.06172839506172839,0,0)" xlink:href="#ax"/><use transform="matrix(0.06172839506172839,0,0,0.06172839506172839,15.987654320987653,0)" xlink:href="#ap"/><use transform="matrix(0.06172839506172839,0,0,0.06172839506172839,33.2716049382716,0)" xlink:href="#ar"/><use transform="matrix(0.06172839506172839,0,0,0.06172839506172839,39.44444444444444,0)" xlink:href="#az"/><use transform="matrix(0.06172839506172839,0,0,0.06172839506172839,55.432098765432094,0)" xlink:href="#bl"/></g><path fill="#333" d="M101-251c82-7 93 87 43 132L82-64C71-53 59-42 53-27h129V0H18c2-99 128-94 128-182 0-28-16-43-45-43s-46 15-49 41l-32-3c6-41 34-60 81-64" id="bm"/><g id="C"><use transform="matrix(0.06172839506172839,0,0,0.06172839506172839,0,0)" xlink:href="#ax"/><use transform="matrix(0.06172839506172839,0,0,0.06172839506172839,15.987654320987653,0)" xlink:href="#ap"/><use transform="matrix(0.06172839506172839,0,0,0.06172839506172839,33.2716049382716,0)" xlink:href="#ar"/><use transform="matrix(0.06172839506172839,0,0,0.06172839506172839,39.44444444444444,0)" xlink:href="#az"/><use transform="matrix(0.06172839506172839,0,0,0.06172839506172839,55.432098765432094,0)" xlink:href="#bm"/></g><path fill="#333" d="M54-142c48-35 137-8 131 61C196 18 31 33 14-55l32-4c7 23 22 37 52 37 35-1 51-22 54-58 4-55-73-65-99-34H22l8-134h141v27H59" id="bn"/><g id="D"><use transform="matrix(0.06172839506172839,0,0,0.06172839506172839,0,0)" xlink:href="#ax"/><use transform="matrix(0.06172839506172839,0,0,0.06172839506172839,15.987654320987653,0)" xlink:href="#ap"/><use transform="matrix(0.06172839506172839,0,0,0.06172839506172839,33.2716049382716,0)" xlink:href="#ar"/><use transform="matrix(0.06172839506172839,0,0,0.06172839506172839,39.44444444444444,0)" xlink:href="#az"/><use transform="matrix(0.06172839506172839,0,0,0.06172839506172839,55.432098765432094,0)" xlink:href="#bn"/></g><g id="E"><use transform="matrix(0.06172839506172839,0,0,0.06172839506172839,0,0)" xlink:href="#ax"/><use transform="matrix(0.06172839506172839,0,0,0.06172839506172839,15.987654320987653,0)" xlink:href="#ap"/><use transform="matrix(0.06172839506172839,0,0,0.06172839506172839,33.2716049382716,0)" xlink:href="#ar"/><use transform="matrix(0.06172839506172839,0,0,0.06172839506172839,39.44444444444444,0)" xlink:href="#az"/><use transform="matrix(0.06172839506172839,0,0,0.06172839506172839,55.432098765432094,0)" xlink:href="#bl"/><use transform="matrix(0.06172839506172839,0,0,0.06172839506172839,67.77777777777777,0)" xlink:href="#aO"/></g><g id="F"><use transform="matrix(0.06172839506172839,0,0,0.06172839506172839,0,0)" xlink:href="#ay"/><use transform="matrix(0.06172839506172839,0,0,0.06172839506172839,15.987654320987653,0)" xlink:href="#as"/><use transform="matrix(0.06172839506172839,0,0,0.06172839506172839,30.80246913580247,0)" xlink:href="#av"/><use transform="matrix(0.06172839506172839,0,0,0.06172839506172839,44.32098765432099,0)" xlink:href="#aB"/><use transform="matrix(0.06172839506172839,0,0,0.06172839506172839,60.30864197530864,0)" xlink:href="#ay"/><use transform="matrix(0.06172839506172839,0,0,0.06172839506172839,76.29629629629629,0)" xlink:href="#az"/></g><path fill="#333" d="M30 0v-248h33v221h125V0H30" id="bo"/><g id="G"><use transform="matrix(0.06172839506172839,0,0,0.06172839506172839,0,0)" xlink:href="#au"/><use transform="matrix(0.06172839506172839,0,0,0.06172839506172839,14.814814814814813,0)" xlink:href="#as"/><use transform="matrix(0.06172839506172839,0,0,0.06172839506172839,29.629629629629626,0)" xlink:href="#bo"/><use transform="matrix(0.06172839506172839,0,0,0.06172839506172839,41.9753086419753,0)" xlink:href="#as"/><use transform="matrix(0.06172839506172839,0,0,0.06172839506172839,56.79012345679011,0)" xlink:href="#ax"/><use transform="matrix(0.06172839506172839,0,0,0.06172839506172839,72.77777777777777,0)" xlink:href="#av"/></g><path fill="#333" d="M30-248c118-7 216 8 213 122C240-48 200 0 122 0H30v-248zM63-27c89 8 146-16 146-99s-60-101-146-95v194" id="bp"/><path fill="#333" d="M266 0h-40l-56-210L115 0H75L2-248h35L96-30l15-64 43-154h32l59 218 59-218h35" id="bq"/><g id="H"><use transform="matrix(0.06172839506172839,0,0,0.06172839506172839,0,0)" xlink:href="#bp"/><use transform="matrix(0.06172839506172839,0,0,0.06172839506172839,15.987654320987653,0)" xlink:href="#ap"/><use transform="matrix(0.06172839506172839,0,0,0.06172839506172839,33.2716049382716,0)" xlink:href="#bq"/><use transform="matrix(0.06172839506172839,0,0,0.06172839506172839,54.197530864197525,0)" xlink:href="#az"/></g><g id="I"><use transform="matrix(0.06172839506172839,0,0,0.06172839506172839,0,0)" xlink:href="#aB"/><use transform="matrix(0.06172839506172839,0,0,0.06172839506172839,15.987654320987653,0)" xlink:href="#aw"/></g><g id="J"><use transform="matrix(0.06172839506172839,0,0,0.06172839506172839,0,0)" xlink:href="#az"/><use transform="matrix(0.06172839506172839,0,0,0.06172839506172839,15.987654320987653,0)" xlink:href="#ap"/><use transform="matrix(0.06172839506172839,0,0,0.06172839506172839,33.2716049382716,0)" xlink:href="#at"/><use transform="matrix(0.06172839506172839,0,0,0.06172839506172839,45.61728395061728,0)" xlink:href="#as"/><use transform="matrix(0.06172839506172839,0,0,0.06172839506172839,60.43209876543209,0)" xlink:href="#aq"/><use transform="matrix(0.06172839506172839,0,0,0.06172839506172839,75.2469135802469,0)" xlink:href="#as"/><use transform="matrix(0.06172839506172839,0,0,0.06172839506172839,90.0617283950617,0)" xlink:href="#az"/><use transform="matrix(0.06172839506172839,0,0,0.06172839506172839,106.04938271604937,0)" xlink:href="#av"/></g><g id="K"><use transform="matrix(0.04320987654320987,0,0,0.04320987654320987,0,0)" xlink:href="#ay"/><use transform="matrix(0.04320987654320987,0,0,0.04320987654320987,11.191358024691356,0)" xlink:href="#as"/><use transform="matrix(0.04320987654320987,0,0,0.04320987654320987,21.561728395061724,0)" xlink:href="#av"/><use transform="matrix(0.04320987654320987,0,0,0.04320987654320987,31.024691358024686,0)" xlink:href="#aB"/><use transform="matrix(0.04320987654320987,0,0,0.04320987654320987,42.21604938271604,0)" xlink:href="#ay"/><use transform="matrix(0.04320987654320987,0,0,0.04320987654320987,53.40740740740738,0)" xlink:href="#az"/></g><use transform="matrix(0.04320987654320987,0,0,0.04320987654320987,0,0)" xlink:href="#aQ" id="L"/><g id="M"><use transform="matrix(0.04320987654320987,0,0,0.04320987654320987,0,0)" xlink:href="#aG"/><use transform="matrix(0.04320987654320987,0,0,0.04320987654320987,7.777777777777776,0)" xlink:href="#aH"/><use transform="matrix(0.04320987654320987,0,0,0.04320987654320987,12.91975308641975,0)" xlink:href="#aV"/><use transform="matrix(0.04320987654320987,0,0,0.04320987654320987,21.56172839506172,0)" xlink:href="#bc"/><use transform="matrix(0.04320987654320987,0,0,0.04320987654320987,30.2037037037037,0)" xlink:href="#aR"/><use transform="matrix(0.04320987654320987,0,0,0.04320987654320987,33.61728395061728,0)" xlink:href="#aS"/></g><use transform="matrix(0.04320987654320987,0,0,0.04320987654320987,0,0)" xlink:href="#aN" id="N"/><use transform="matrix(0.04320987654320987,0,0,0.04320987654320987,0,0)" xlink:href="#aO" id="O"/><g id="P"><use transform="matrix(0.04320987654320986,0,0,0.04320987654320986,0,0)" xlink:href="#au"/><use transform="matrix(0.04320987654320986,0,0,0.04320987654320986,10.370370370370367,0)" xlink:href="#as"/><use transform="matrix(0.04320987654320986,0,0,0.04320987654320986,20.740740740740733,0)" xlink:href="#bo"/><use transform="matrix(0.04320987654320986,0,0,0.04320987654320986,29.38271604938271,0)" xlink:href="#as"/><use transform="matrix(0.04320987654320986,0,0,0.04320987654320986,39.753086419753075,0)" xlink:href="#ax"/><use transform="matrix(0.04320987654320986,0,0,0.04320987654320986,50.94444444444443,0)" xlink:href="#av"/></g><use transform="matrix(0.04320987654320986,0,0,0.04320987654320986,0,0)" xlink:href="#aQ" id="Q"/><path fill="#333" d="M143 4C61 4 22-44 18-125c-5-107 100-154 193-111 17 8 29 25 37 43l-32 9c-13-25-37-40-76-40-61 0-88 39-88 99 0 61 29 100 91 101 35 0 62-11 79-27v-45h-74v-28h105v86C228-13 192 4 143 4" id="br"/><g id="R"><use transform="matrix(0.06172839506172839,0,0,0.06172839506172839,0,0)" xlink:href="#br"/><use transform="matrix(0.06172839506172839,0,0,0.06172839506172839,17.28395061728395,0)" xlink:href="#as"/><use transform="matrix(0.06172839506172839,0,0,0.06172839506172839,32.09876543209876,0)" xlink:href="#av"/><use transform="matrix(0.06172839506172839,0,0,0.06172839506172839,45.61728395061728,0)" xlink:href="#av"/><use transform="matrix(0.06172839506172839,0,0,0.06172839506172839,59.1358024691358,0)" xlink:href="#ar"/><use transform="matrix(0.06172839506172839,0,0,0.06172839506172839,65.30864197530863,0)" xlink:href="#az"/><use transform="matrix(0.06172839506172839,0,0,0.06172839506172839,81.29629629629629,0)" xlink:href="#br"/><use transform="matrix(0.06172839506172839,0,0,0.06172839506172839,98.58024691358024,0)" xlink:href="#at"/><use transform="matrix(0.06172839506172839,0,0,0.06172839506172839,110.92592592592592,0)" xlink:href="#ax"/><use transform="matrix(0.06172839506172839,0,0,0.06172839506172839,126.91358024691357,0)" xlink:href="#ap"/><use transform="matrix(0.06172839506172839,0,0,0.06172839506172839,144.19753086419752,0)" xlink:href="#ar"/><use transform="matrix(0.06172839506172839,0,0,0.06172839506172839,150.37037037037035,0)" xlink:href="#az"/><use transform="matrix(0.06172839506172839,0,0,0.06172839506172839,166.358024691358,0)" xlink:href="#au"/><use transform="matrix(0.06172839506172839,0,0,0.06172839506172839,181.1728395061728,0)" xlink:href="#at"/><use transform="matrix(0.06172839506172839,0,0,0.06172839506172839,193.51851851851848,0)" xlink:href="#au"/><use transform="matrix(0.06172839506172839,0,0,0.06172839506172839,208.3333333333333,0)" xlink:href="#av"/></g><use transform="matrix(0.04320987654320988,0,0,0.04320987654320988,0,0)" xlink:href="#aQ" id="S"/><g id="T"><use transform="matrix(0.04320987654320988,0,0,0.04320987654320988,0,0)" xlink:href="#aG"/><use transform="matrix(0.04320987654320988,0,0,0.04320987654320988,7.777777777777779,0)" xlink:href="#aH"/><use transform="matrix(0.04320987654320988,0,0,0.04320987654320988,12.919753086419751,0)" xlink:href="#aV"/><use transform="matrix(0.04320987654320988,0,0,0.04320987654320988,21.561728395061728,0)" xlink:href="#bc"/><use transform="matrix(0.04320987654320988,0,0,0.04320987654320988,30.203703703703702,0)" xlink:href="#aR"/><use transform="matrix(0.04320987654320988,0,0,0.04320987654320988,33.617283950617285,0)" xlink:href="#aS"/></g><path fill="#333" d="M16-82v-28h88v28H16" id="bs"/><use transform="matrix(0.04320987654320988,0,0,0.04320987654320988,0,0)" xlink:href="#bs" id="U"/><path fill="#333" d="M205 0l-28-72H64L36 0H1l101-248h38L239 0h-34zm-38-99l-47-123c-12 45-31 82-46 123h93" id="bt"/><g id="V"><use transform="matrix(0.04320987654320988,0,0,0.04320987654320988,0,0)" xlink:href="#aT"/><use transform="matrix(0.04320987654320988,0,0,0.04320987654320988,7.777777777777779,0)" xlink:href="#aX"/><use transform="matrix(0.04320987654320988,0,0,0.04320987654320988,16.419753086419753,0)" xlink:href="#aZ"/><use transform="matrix(0.04320987654320988,0,0,0.04320987654320988,29.339506172839503,0)" xlink:href="#bt"/><use transform="matrix(0.04320987654320988,0,0,0.04320987654320988,39.70987654320988,0)" xlink:href="#aK"/><use transform="matrix(0.04320987654320988,0,0,0.04320987654320988,43.12345679012346,0)" xlink:href="#aK"/></g><g id="W"><use transform="matrix(0.04320987654320988,0,0,0.04320987654320988,0,0)" xlink:href="#au"/><use transform="matrix(0.04320987654320988,0,0,0.04320987654320988,10.370370370370372,0)" xlink:href="#av"/><use transform="matrix(0.04320987654320988,0,0,0.04320987654320988,18.66666666666667,0)" xlink:href="#bt"/><use transform="matrix(0.04320987654320988,0,0,0.04320987654320988,29.037037037037045,0)" xlink:href="#ay"/><use transform="matrix(0.04320987654320988,0,0,0.04320987654320988,39.92592592592594,0)" xlink:href="#av"/></g><g id="X"><use transform="matrix(0.04320987654320988,0,0,0.04320987654320988,0,0)" xlink:href="#bp"/><use transform="matrix(0.04320987654320988,0,0,0.04320987654320988,11.19135802469136,0)" xlink:href="#ap"/><use transform="matrix(0.04320987654320988,0,0,0.04320987654320988,23.290123456790127,0)" xlink:href="#bq"/><use transform="matrix(0.04320987654320988,0,0,0.04320987654320988,37.93827160493828,0)" xlink:href="#az"/><use transform="matrix(0.04320987654320988,0,0,0.04320987654320988,49.12962962962965,0)" xlink:href="#aD"/><use transform="matrix(0.04320987654320988,0,0,0.04320987654320988,53.45061728395062,0)" xlink:href="#aE"/><use transform="matrix(0.04320987654320988,0,0,0.04320987654320988,62.0925925925926,0)" xlink:href="#aF"/><use transform="matrix(0.04320987654320988,0,0,0.04320987654320988,70.73456790123458,0)" xlink:href="#aE"/><use transform="matrix(0.04320987654320988,0,0,0.04320987654320988,79.37654320987656,0)" xlink:href="#aG"/><use transform="matrix(0.04320987654320988,0,0,0.04320987654320988,87.15432098765433,0)" xlink:href="#aF"/><use transform="matrix(0.04320987654320988,0,0,0.04320987654320988,95.7962962962963,0)" xlink:href="#aH"/><use transform="matrix(0.04320987654320988,0,0,0.04320987654320988,100.93827160493828,0)" xlink:href="#aI"/><use transform="matrix(0.04320987654320988,0,0,0.04320987654320988,109.58024691358025,0)" xlink:href="#aJ"/><use transform="matrix(0.04320987654320988,0,0,0.04320987654320988,119.04320987654322,0)" xlink:href="#aK"/><use transform="matrix(0.04320987654320988,0,0,0.04320987654320988,122.4567901234568,0)" xlink:href="#aL"/><use transform="matrix(0.04320987654320988,0,0,0.04320987654320988,131.0987654320988,0)" xlink:href="#aM"/></g><g id="Y"><use transform="matrix(0.04320987654320988,0,0,0.04320987654320988,0,0)" xlink:href="#bl"/><use transform="matrix(0.04320987654320988,0,0,0.04320987654320988,8.641975308641976,0)" xlink:href="#aP"/></g><g id="Z"><use transform="matrix(0.04320987654320987,0,0,0.04320987654320987,0,0)" xlink:href="#ax"/><use transform="matrix(0.04320987654320987,0,0,0.04320987654320987,11.191358024691356,0)" xlink:href="#ap"/><use transform="matrix(0.04320987654320987,0,0,0.04320987654320987,23.29012345679012,0)" xlink:href="#ar"/><use transform="matrix(0.04320987654320987,0,0,0.04320987654320987,27.611111111111104,0)" xlink:href="#az"/><use transform="matrix(0.04320987654320987,0,0,0.04320987654320987,38.80246913580246,0)" xlink:href="#bl"/></g><path fill="#333" d="M118-107v75H92v-75H18v-26h74v-75h26v75h74v26h-74" id="bu"/><g id="aa"><use transform="matrix(0.04320987654320987,0,0,0.04320987654320987,0,0)" xlink:href="#bu"/><use transform="matrix(0.04320987654320987,0,0,0.04320987654320987,9.074074074074073,0)" xlink:href="#aN"/></g><use transform="matrix(0.04320987654320987,0,0,0.04320987654320987,0,0)" xlink:href="#bl" id="ab"/><g id="ac"><use transform="matrix(0.04320987654320987,0,0,0.04320987654320987,0,0)" xlink:href="#ax"/><use transform="matrix(0.04320987654320987,0,0,0.04320987654320987,11.191358024691356,0)" xlink:href="#ap"/><use transform="matrix(0.04320987654320987,0,0,0.04320987654320987,23.29012345679012,0)" xlink:href="#ar"/><use transform="matrix(0.04320987654320987,0,0,0.04320987654320987,27.611111111111104,0)" xlink:href="#az"/><use transform="matrix(0.04320987654320987,0,0,0.04320987654320987,38.80246913580246,0)" xlink:href="#bm"/></g><use transform="matrix(0.04320987654320987,0,0,0.04320987654320987,0,0)" xlink:href="#bm" id="ad"/><g id="ae"><use transform="matrix(0.04320987654320987,0,0,0.04320987654320987,0,0)" xlink:href="#ax"/><use transform="matrix(0.04320987654320987,0,0,0.04320987654320987,11.191358024691356,0)" xlink:href="#ap"/><use transform="matrix(0.04320987654320987,0,0,0.04320987654320987,23.29012345679012,0)" xlink:href="#ar"/><use transform="matrix(0.04320987654320987,0,0,0.04320987654320987,27.611111111111104,0)" xlink:href="#az"/><use transform="matrix(0.04320987654320987,0,0,0.04320987654320987,38.80246913580246,0)" xlink:href="#bn"/></g><use transform="matrix(0.04320987654320987,0,0,0.04320987654320987,0,0)" xlink:href="#bn" id="af"/><g id="ag"><use transform="matrix(0.04320987654320987,0,0,0.04320987654320987,0,0)" xlink:href="#ax"/><use transform="matrix(0.04320987654320987,0,0,0.04320987654320987,11.191358024691356,0)" xlink:href="#ap"/><use transform="matrix(0.04320987654320987,0,0,0.04320987654320987,23.29012345679012,0)" xlink:href="#ar"/><use transform="matrix(0.04320987654320987,0,0,0.04320987654320987,27.611111111111104,0)" xlink:href="#az"/><use transform="matrix(0.04320987654320987,0,0,0.04320987654320987,38.80246913580246,0)" xlink:href="#bl"/><use transform="matrix(0.04320987654320987,0,0,0.04320987654320987,47.444444444444436,0)" xlink:href="#aO"/></g><g id="ah"><use transform="matrix(0.04320987654320987,0,0,0.04320987654320987,0,0)" xlink:href="#bl"/><use transform="matrix(0.04320987654320987,0,0,0.04320987654320987,8.641975308641973,0)" xlink:href="#aO"/></g><path fill="#333" d="M169-182c-1-43-94-46-97-3 18 66 151 10 154 114 3 95-165 93-204 36-6-8-10-19-12-30l50-8c3 46 112 56 116 5-17-69-150-10-154-114-4-87 153-88 188-35 5 8 8 18 10 28" id="bv"/><path fill="#333" d="M133-34C117-15 103 5 69 4 32 3 11-16 11-54c-1-60 55-63 116-61 1-26-3-47-28-47-18 1-26 9-28 27l-52-2c7-38 36-58 82-57s74 22 75 68l1 82c-1 14 12 18 25 15v27c-30 8-71 5-69-32zm-48 3c29 0 43-24 42-57-32 0-66-3-65 30 0 17 8 27 23 27" id="bw"/><g id="ai"><use transform="matrix(0.06172839506172839,0,0,0.06172839506172839,0,0)" xlink:href="#bv"/><use transform="matrix(0.06172839506172839,0,0,0.06172839506172839,14.814814814814813,0)" xlink:href="#bi"/><use transform="matrix(0.06172839506172839,0,0,0.06172839506172839,22.160493827160494,0)" xlink:href="#bw"/><use transform="matrix(0.06172839506172839,0,0,0.06172839506172839,34.50617283950617,0)" xlink:href="#bi"/><use transform="matrix(0.06172839506172839,0,0,0.06172839506172839,41.85185185185185,0)" xlink:href="#bg"/><use transform="matrix(0.06172839506172839,0,0,0.06172839506172839,54.197530864197525,0)" xlink:href="#bj"/><use transform="matrix(0.06172839506172839,0,0,0.06172839506172839,66.5432098765432,0)" xlink:href="#bk"/></g><g id="aj"><use transform="matrix(0.06172839506172839,0,0,0.06172839506172839,0,0)" xlink:href="#br"/><use transform="matrix(0.06172839506172839,0,0,0.06172839506172839,17.28395061728395,0)" xlink:href="#as"/><use transform="matrix(0.06172839506172839,0,0,0.06172839506172839,32.09876543209876,0)" xlink:href="#av"/><use transform="matrix(0.06172839506172839,0,0,0.06172839506172839,45.61728395061728,0)" xlink:href="#av"/><use transform="matrix(0.06172839506172839,0,0,0.06172839506172839,59.1358024691358,0)" xlink:href="#ar"/><use transform="matrix(0.06172839506172839,0,0,0.06172839506172839,65.30864197530863,0)" xlink:href="#az"/><use transform="matrix(0.06172839506172839,0,0,0.06172839506172839,81.29629629629629,0)" xlink:href="#br"/><use transform="matrix(0.06172839506172839,0,0,0.06172839506172839,98.58024691358024,0)" xlink:href="#at"/><use transform="matrix(0.06172839506172839,0,0,0.06172839506172839,110.92592592592592,0)" xlink:href="#ax"/><use transform="matrix(0.06172839506172839,0,0,0.06172839506172839,126.91358024691357,0)" xlink:href="#ap"/><use transform="matrix(0.06172839506172839,0,0,0.06172839506172839,144.19753086419752,0)" xlink:href="#ar"/><use transform="matrix(0.06172839506172839,0,0,0.06172839506172839,150.37037037037035,0)" xlink:href="#az"/><use transform="matrix(0.06172839506172839,0,0,0.06172839506172839,166.358024691358,0)" xlink:href="#au"/><use transform="matrix(0.06172839506172839,0,0,0.06172839506172839,181.1728395061728,0)" xlink:href="#at"/><use transform="matrix(0.06172839506172839,0,0,0.06172839506172839,193.51851851851848,0)" xlink:href="#au"/><use transform="matrix(0.06172839506172839,0,0,0.06172839506172839,208.3333333333333,0)" xlink:href="#av"/></g><g id="ak"><use transform="matrix(0.06172839506172839,0,0,0.06172839506172839,0,0)" xlink:href="#ao"/><use transform="matrix(0.06172839506172839,0,0,0.06172839506172839,18.456790123456788,0)" xlink:href="#ap"/><use transform="matrix(0.06172839506172839,0,0,0.06172839506172839,35.74074074074073,0)" xlink:href="#aq"/><use transform="matrix(0.06172839506172839,0,0,0.06172839506172839,50.55555555555554,0)" xlink:href="#ar"/><use transform="matrix(0.06172839506172839,0,0,0.06172839506172839,56.728395061728385,0)" xlink:href="#as"/><use transform="matrix(0.06172839506172839,0,0,0.06172839506172839,71.5432098765432,0)" xlink:href="#at"/><use transform="matrix(0.06172839506172839,0,0,0.06172839506172839,83.88888888888889,0)" xlink:href="#au"/><use transform="matrix(0.06172839506172839,0,0,0.06172839506172839,98.7037037037037,0)" xlink:href="#av"/></g><g id="al"><use transform="matrix(0.06172839506172839,0,0,0.06172839506172839,0,0)" xlink:href="#aw"/><use transform="matrix(0.06172839506172839,0,0,0.06172839506172839,14.814814814814813,0)" xlink:href="#ap"/><use transform="matrix(0.06172839506172839,0,0,0.06172839506172839,32.09876543209876,0)" xlink:href="#aw"/><use transform="matrix(0.06172839506172839,0,0,0.06172839506172839,46.91358024691357,0)" xlink:href="#ax"/><use transform="matrix(0.06172839506172839,0,0,0.06172839506172839,62.90123456790122,0)" xlink:href="#ap"/><use transform="matrix(0.06172839506172839,0,0,0.06172839506172839,80.18518518518516,0)" xlink:href="#ay"/><use transform="matrix(0.06172839506172839,0,0,0.06172839506172839,96.17283950617282,0)" xlink:href="#az"/><use transform="matrix(0.06172839506172839,0,0,0.06172839506172839,112.16049382716048,0)" xlink:href="#at"/><use transform="matrix(0.06172839506172839,0,0,0.06172839506172839,124.50617283950616,0)" xlink:href="#au"/><use transform="matrix(0.06172839506172839,0,0,0.06172839506172839,139.320987654321,0)" xlink:href="#av"/></g><g id="am"><use transform="matrix(0.04320987654320987,0,0,0.04320987654320987,0,0)" xlink:href="#az"/><use transform="matrix(0.04320987654320987,0,0,0.04320987654320987,11.191358024691356,0)" xlink:href="#ap"/><use transform="matrix(0.04320987654320987,0,0,0.04320987654320987,23.29012345679012,0)" xlink:href="#at"/><use transform="matrix(0.04320987654320987,0,0,0.04320987654320987,31.932098765432098,0)" xlink:href="#as"/><use transform="matrix(0.04320987654320987,0,0,0.04320987654320987,42.30246913580246,0)" xlink:href="#aq"/><use transform="matrix(0.04320987654320987,0,0,0.04320987654320987,52.67283950617283,0)" xlink:href="#as"/><use transform="matrix(0.04320987654320987,0,0,0.04320987654320987,63.043209876543195,0)" xlink:href="#az"/><use transform="matrix(0.04320987654320987,0,0,0.04320987654320987,74.23456790123456,0)" xlink:href="#av"/></g><use transform="matrix(0.04320987654320987,0,0,0.04320987654320987,0,0)" xlink:href="#aQ" id="an"/></defs></g></svg>